PathFileType	4	(X/Y/Z)	C:\Users\Kira\Nextcloud\Documents\MA\Daten\C3D\P01\post\Stand01\marker_experimental.trc																																																																																																																																																																																																																																																																																																																																																																																																																																																																																																																																																																																																																																																																																																																			
DataRate	CameraRate	NumFrames	NumMarkers	Units	OrigDataRate	OrigDataStartFrame	OrigNumFrames																																																																																																																																																																																																																																																																																																																																																																																																																																																																																																																																																																																																																																																																																																															
150	150	2	231	mm	150	131	150																																																																																																																																																																																																																																																																																																																																																																																																																																																																																																																																																																																																																																																																																																															
Frame#	Time	LFHD			LBHD			RFHD			RBHD			C7			T10			CLAV			STRN			RBAK			LSHO			LUPA			LELB			LFRA			LWRB			LWRA			LFIN			RSHO			RUPA			RELB			RFRA			RWRB			RWRA			RFIN			SACR			LASI			RASI			LT1			LT2			LT3			LS1			LS2			LS3			LHEE			LTOE			RT1			RT2			RT3			RS1			RS2			RS3			RHEE			RTOE			PELO			PELA			PELL			PELP			SACO			SACA			SACL			SACP			LFEO			LFEA			LFEL			LFEP			RFEO			RFEA			RFEL			RFEP			LTIO			LTIA			LTIL			LTIP			RTIO			RTIA			RTIL			RTIP			LFOO			LFOA			LFOL			LFOP			RFOO			RFOA			RFOL			RFOP			LTOO			LTOA			LTOL			LTOP			RTOO			RTOA			RTOL			RTOP			HEDO			HEDA			HEDL			HEDP			LCLO			LCLA			LCLL			LCLP			RCLO			RCLA			RCLL			RCLP			TRXO			TRXA			TRXL			TRXP			LHUO			LHUA			LHUL			LHUP			LRAO			LRAA			LRAL			LRAP			LHNO			LHNA			LHNL			LHNP			RHUO			RHUA			RHUL			RHUP			RRAO			RRAA			RRAL			RRAP			RHNO			RHNA			RHNL			RHNP			LPelvisAngles			RPelvisAngles			LFootProgressAngles			RFootProgressAngles			LHipAngles			RHipAngles			LKneeAngles			RKneeAngles			LAnkleAngles			RAnkleAngles			LFFootAngles			RFFootAngles			LAbsAnkleAngle			RAbsAnkleAngle			RNeckAngles			LNeckAngles			RSpineAngles			LSpineAngles			LShoulderAngles			LElbowAngles			LWristAngles			RShoulderAngles			RElbowAngles			RWristAngles			RThoraxAngles			LThoraxAngles			RHeadAngles			LHeadAngles			LHipPower			LKneePower			LAnklePower			RHipPower			RKneePower			RAnklePower			LWaistPower			RWaistPower			LNeckPower			RNeckPower			LShoulderPower			RShoulderPower			LElbowPower			RElbowPower			LWristPower			RWristPower			F_ForcePlate1			F_ForcePlate2			F_ForcePlate3			LGRF			RGRF			LHipForce			RHipForce			LKneeForce			RKneeForce			LAnkleForce			RAnkleForce			LWaistForce			RWaistForce			LNeckForce			RNeckForce			LShoulderForce			RShoulderForce			LElbowForce			RElbowForce			LWristForce			RWristForce			LNormalisedGRF			RNormalisedGRF			LGroundReactionForce			RGroundReactionForce			LHipMoment			RHipMoment			LKneeMoment			RKneeMoment			LAnkleMoment			RAnkleMoment			LWaistMoment			RWaistMoment			LNeckMoment			RNeckMoment			LShoulderMoment			RShoulderMoment			LElbowMoment			RElbowMoment			LWristMoment			RWristMoment			LKNE			RKNE			LANK			RANK			LKJC			RKJC			LAJC			RAJC			LTHI			RTHI			LTIB			RTIB			P_ForcePlate1			P_ForcePlate2			P_ForcePlate3			CentreOfMass			CentreOfMassFloor			funktRKJC			funktLKJC			funktRHIP			funktLHIP			LHJC			RHJC			LHF		
		X1	Y1	Z1	X2	Y2	Z2	X3	Y3	Z3	X4	Y4	Z4	X5	Y5	Z5	X6	Y6	Z6	X7	Y7	Z7	X8	Y8	Z8	X9	Y9	Z9	X10	Y10	Z10	X11	Y11	Z11	X12	Y12	Z12	X13	Y13	Z13	X14	Y14	Z14	X15	Y15	Z15	X16	Y16	Z16	X17	Y17	Z17	X18	Y18	Z18	X19	Y19	Z19	X20	Y20	Z20	X21	Y21	Z21	X22	Y22	Z22	X23	Y23	Z23	X24	Y24	Z24	X25	Y25	Z25	X26	Y26	Z26	X27	Y27	Z27	X28	Y28	Z28	X29	Y29	Z29	X30	Y30	Z30	X31	Y31	Z31	X32	Y32	Z32	X33	Y33	Z33	X34	Y34	Z34	X35	Y35	Z35	X36	Y36	Z36	X37	Y37	Z37	X38	Y38	Z38	X39	Y39	Z39	X40	Y40	Z40	X41	Y41	Z41	X42	Y42	Z42	X43	Y43	Z43	X44	Y44	Z44	X45	Y45	Z45	X46	Y46	Z46	X47	Y47	Z47	X48	Y48	Z48	X49	Y49	Z49	X50	Y50	Z50	X51	Y51	Z51	X52	Y52	Z52	X53	Y53	Z53	X54	Y54	Z54	X55	Y55	Z55	X56	Y56	Z56	X57	Y57	Z57	X58	Y58	Z58	X59	Y59	Z59	X60	Y60	Z60	X61	Y61	Z61	X62	Y62	Z62	X63	Y63	Z63	X64	Y64	Z64	X65	Y65	Z65	X66	Y66	Z66	X67	Y67	Z67	X68	Y68	Z68	X69	Y69	Z69	X70	Y70	Z70	X71	Y71	Z71	X72	Y72	Z72	X73	Y73	Z73	X74	Y74	Z74	X75	Y75	Z75	X76	Y76	Z76	X77	Y77	Z77	X78	Y78	Z78	X79	Y79	Z79	X80	Y80	Z80	X81	Y81	Z81	X82	Y82	Z82	X83	Y83	Z83	X84	Y84	Z84	X85	Y85	Z85	X86	Y86	Z86	X87	Y87	Z87	X88	Y88	Z88	X89	Y89	Z89	X90	Y90	Z90	X91	Y91	Z91	X92	Y92	Z92	X93	Y93	Z93	X94	Y94	Z94	X95	Y95	Z95	X96	Y96	Z96	X97	Y97	Z97	X98	Y98	Z98	X99	Y99	Z99	X100	Y100	Z100	X101	Y101	Z101	X102	Y102	Z102	X103	Y103	Z103	X104	Y104	Z104	X105	Y105	Z105	X106	Y106	Z106	X107	Y107	Z107	X108	Y108	Z108	X109	Y109	Z109	X110	Y110	Z110	X111	Y111	Z111	X112	Y112	Z112	X113	Y113	Z113	X114	Y114	Z114	X115	Y115	Z115	X116	Y116	Z116	X117	Y117	Z117	X118	Y118	Z118	X119	Y119	Z119	X120	Y120	Z120	X121	Y121	Z121	X122	Y122	Z122	X123	Y123	Z123	X124	Y124	Z124	X125	Y125	Z125	X126	Y126	Z126	X127	Y127	Z127	X128	Y128	Z128	X129	Y129	Z129	X130	Y130	Z130	X131	Y131	Z131	X132	Y132	Z132	X133	Y133	Z133	X134	Y134	Z134	X135	Y135	Z135	X136	Y136	Z136	X137	Y137	Z137	X138	Y138	Z138	X139	Y139	Z139	X140	Y140	Z140	X141	Y141	Z141	X142	Y142	Z142	X143	Y143	Z143	X144	Y144	Z144	X145	Y145	Z145	X146	Y146	Z146	X147	Y147	Z147	X148	Y148	Z148	X149	Y149	Z149	X150	Y150	Z150	X151	Y151	Z151	X152	Y152	Z152	X153	Y153	Z153	X154	Y154	Z154	X155	Y155	Z155	X156	Y156	Z156	X157	Y157	Z157	X158	Y158	Z158	X159	Y159	Z159	X160	Y160	Z160	X161	Y161	Z161	X162	Y162	Z162	X163	Y163	Z163	X164	Y164	Z164	X165	Y165	Z165	X166	Y166	Z166	X167	Y167	Z167	X168	Y168	Z168	X169	Y169	Z169	X170	Y170	Z170	X171	Y171	Z171	X172	Y172	Z172	X173	Y173	Z173	X174	Y174	Z174	X175	Y175	Z175	X176	Y176	Z176	X177	Y177	Z177	X178	Y178	Z178	X179	Y179	Z179	X180	Y180	Z180	X181	Y181	Z181	X182	Y182	Z182	X183	Y183	Z183	X184	Y184	Z184	X185	Y185	Z185	X186	Y186	Z186	X187	Y187	Z187	X188	Y188	Z188	X189	Y189	Z189	X190	Y190	Z190	X191	Y191	Z191	X192	Y192	Z192	X193	Y193	Z193	X194	Y194	Z194	X195	Y195	Z195	X196	Y196	Z196	X197	Y197	Z197	X198	Y198	Z198	X199	Y199	Z199	X200	Y200	Z200	X201	Y201	Z201	X202	Y202	Z202	X203	Y203	Z203	X204	Y204	Z204	X205	Y205	Z205	X206	Y206	Z206	X207	Y207	Z207	X208	Y208	Z208	X209	Y209	Z209	X210	Y210	Z210	X211	Y211	Z211	X212	Y212	Z212	X213	Y213	Z213	X214	Y214	Z214	X215	Y215	Z215	X216	Y216	Z216	X217	Y217	Z217	X218	Y218	Z218	X219	Y219	Z219	X220	Y220	Z220	X221	Y221	Z221	X222	Y222	Z222	X223	Y223	Z223	X224	Y224	Z224	X225	Y225	Z225	X226	Y226	Z226	X227	Y227	Z227	X228	Y228	Z228	X229	Y229	Z229	X230	Y230	Z230	X231	Y231	Z231
																																																																																																																																																																																																																																																																																																																																																																																																																																																																																																																																																																																																																																																																																																																						
132	0.873333333	-334.7029419	1545.741577	1298.620361	-333.5378418	1521.686401	1159.335693	-461.453125	1542.825195	1306.933838	-484.4770813	1518.098145	1181.119385	-400.9761658	1406.212524	1149.377197	-393.7773743	1225.696655	1086.84729	-406.4512634	1338.925415	1266.764648	-407.3513794	1302.594116	1287.474609	-508.4485779	1267.166626	1077.654175	-254.3843231	1380.102417	1181.997437	-145.9564514	1189.811768	1152.101074	-88.2729187	1114.352661	1172.339355	-41.67004013	1071.212891	1193.211182	48.76784897	940.8416138	1269.234253	22.99388695	949.2736816	1333.580688	78.64229584	900.4696655	1350.662109	-554.8267212	1367.501831	1176.353882	-622.8928223	1281.348633	1157.702393	-694.3696289	1092.233765	1147.606567	-817.3812866	951.710022	1204.424072	-842.7940674	909.6113892	1222.648804	-842.1968384	935.1268921	1288.387939	-900.3256836	883.0916748	1298.084839	-393.8961182	971.732666	1083.047485	-254.0767212	934.1394043	1269.371338	-540.2827759	934.0877075	1260.881348	-206.2546539	643.5175781	1238.924805	-191.0945129	553.4510498	1157.051025	-235.2181549	566.751709	1292.872681	-202.8985138	258.2767639	1179.240112	-188.1802216	179.8300934	1087.025024	-227.5890656	178.4169922	1223.651367	-275.6365967	39.43624878	1091.258667	-226.2435913	38.87548447	1252.068604	-583.7095947	660.8832397	1198.347656	-555.37146	589.7318726	1100.779419	-582.6369019	572.0358276	1240.958984	-577.010437	267.6533508	1153.966187	-555.1411133	203.224884	1053.832764	-571.2582397	182.3555908	1193.601685	-495.2179871	41.37749863	1085.228638	-539.8539429	39.89204025	1246.322021	-395.1940002	848.69104	1199.716797	-395.6322937	845.6332397	1214.511597	-382.6046448	848.6932983	1200.09021	-395.9717407	972.0354004	1225.186768	-393.5270691	959.5953979	1141.83606	-393.7097168	958.3212891	1148.00061	-387.2323914	959.5965576	1142.022827	-393.9161072	1021.267639	1154.570801	-281.4746704	469.6098633	1218.863159	-274.677124	472.2270508	1256.456665	-244.1337433	474.289032	1211.785522	-332.2493286	848.7651367	1201.648071	-498.6830444	473.7938538	1206.911865	-505.7912292	475.4635925	1243.910278	-461.8696289	469.9881592	1214.15625	-458.1387024	848.6168213	1197.785522	-266.4542847	45.4773407	1149.615601	-248.4086304	40.65400314	1183.072266	-231.5524292	49.68781662	1131.397461	-280.2849731	436.0151367	1213.378052	-505.4876709	50.49754715	1142.279175	-521.1692505	45.28281784	1178.082764	-469.3117065	47.56199265	1157.696289	-499.2220764	440.2653503	1201.79248	-226.9832306	49.21012115	1252.788208	-227.9356995	62.51780701	1253.714966	-214.2384949	50.39230728	1248.910889	-266.3841858	55.28018951	1125.129517	-539.4984741	50.05499649	1247.280273	-539.0376587	63.23024368	1248.522583	-526.7230835	49.28779984	1250.677856	-504.9733887	60.85821533	1119.900635	-214.0473175	47.56373978	1294.805664	-214.3480682	51.76616669	1295.098267	-210.0226593	47.93702698	1293.581177	-226.4900513	49.48025513	1254.49231	-550.8433228	46.84804916	1289.214233	-550.6978149	51.00864792	1289.606445	-546.809021	46.60577774	1290.287109	-539.9407349	50.2591362	1248.989014	-410.5496521	1443.436768	1128.817017	-392.2932739	1484.179321	1350.225952	-185.6257629	1449.55481	1109.14502	-420.0954895	1665.513184	1088.73877	-257.9490967	1333.305542	1179.478638	-178.2442017	1319.2677	1327.484253	-245.1546783	1501.264404	1188.518799	-406.0673828	1340.259766	1259.903809	-546.989502	1321.23291	1173.752686	-630.7474976	1299.068237	1315.655396	-519.2653809	1157.557251	1164.55127	-406.0674438	1340.259766	1259.903809	-406.0674133	1340.259766	1259.903687	-415.250824	1308.336426	1424.05127	-573.222229	1337.318237	1249.97998	-401.2927246	1175.881836	1228.202637	-120.2816086	1095.845459	1170.950562	-210.5885468	1052.67395	915.2296143	-340.0647888	964.8444214	1270.682129	-257.9490967	1333.305542	1179.478638	31.53777885	939.6659546	1300.37439	36.20657349	792.0570068	1116.773682	-157.0422668	827.2634277	1385.946899	-109.6542511	1084.912964	1180.010132	98.34993744	835.276062	1391.226196	210.7767181	935.0458984	1423.184692	179.0438538	782.7033691	1271.477417	31.5377655	939.6659546	1300.37439	-662.2573242	1076.466675	1157.051147	-503.3270569	1016.026062	945.9487305	-849.1546631	1176.028564	987.8383789	-546.9894409	1321.23291	1173.752686	-837.5631104	917.7236328	1257.276611	-779.6400146	751.6816406	1095.603638	-1002.268555	1005.463684	1108.155884	-674.5287476	1065.354614	1164.066895	-933.0078735	824.8171387	1346.456055	-1057.783691	919.0007324	1311.033936	-901.1397095	915.3273926	1474.856079	-837.5631714	917.7236938	1257.276611	-0.35384205	1.661908984	-11.66731358	0.35384205	-1.661908984	-11.66731358	-4.273808956	-17.13442039	-2.72211647	-2.065747976	-15.11343479	-4.847687721	7.68298769	-12.03036213	-14.04398346	6.138093948	-9.219863892	-13.25045204	-3.250290871	-16.43539619	-12.68915367	-3.166857958	-11.58034229	-10.90154934	0.650389552	10.62188244	-5.761101723	0.316413909	8.219837189	-3.498591185	-1.14E-15	3.18E-15	7.95E-16	-4.27E-15	3.98E-16	1.59E-15	5.74E-16	0	-9.372332573	5.40E-16	0	-8.82065773	1.048051	-8.346487999	21.12217712	-1.048051	8.346487999	21.12217712	-1.319021583	1.461861253	0.680412412	1.319021583	-1.461861253	0.680412412	-29.08549309	-29.57758522	-6.136612415	3.74E-15	-2.50E-12	-35.15795135	10.99942398	123.378624	-1.547082424	-26.61820412	-40.54230118	-7.761479378	-1.07E-15	7.09E-12	-34.48843765	8.606052399	115.761055	-6.856724262	1.633693695	-3.144638777	-10.91573524	-1.633693695	3.144638777	-10.91573524	2.422224522	4.64034605	-10.23009777	-2.422224522	-4.64034605	-10.23009777	-1.55E-20	-0.000253706	-9.51E-37	3.44E-21	5.62E-05	2.11E-37	2.12E-21	3.46E-05	1.30E-37	1.87E-20	0.000306148	1.15E-36	-3.69E-21	-6.03E-05	-2.26E-37	2.78E-21	4.54E-05	1.70E-37	5.36E-20	0.000875457	3.28E-36	5.36E-20	0.000875457	3.28E-36	6.93E-19	0.011312657	4.24E-35	6.93E-19	0.011312657	4.24E-35	1.13E-20	0.000185213	6.94E-37	2.81E-20	0.0004594	1.72E-36	-2.13E-22	-3.49E-06	-1.31E-38	-1.27E-20	-0.000207393	-7.78E-37	-6.63E-22	-1.08E-05	-4.06E-38	-1.01E-20	-0.000165174	-6.19E-37	-398.0210266	1.304700017	259.0899963	-231.4150085	1.697000027	-251.3170013	-396.9869995	4.582600117	-949.9620361	0	0	0	0	0	0	-0.193474621	1.563926101	-0.107732348	0.15913184	1.569772005	-0.069522828	-0.063700788	0.590239644	0.075240478	0.044537023	0.591440439	0.07919652	-0.012579582	-0.006444025	0.141538069	0.008242235	-0.01160464	0.141531616	-0.00194427	4.457548141	0.922693014	-0.00194427	4.457548141	0.922693014	-0.159112602	8.850094795	1.723700881	-0.159112602	8.850094795	1.723700881	0.234381557	0.424333245	0.076798379	-0.180749223	0.44284302	0.109139256	0.103179894	0.133166477	0.135202944	-0.079725578	0.133456945	0.149898663	0.020124573	0.04002656	-0.038269579	-0.033066038	0.034213375	-0.034738839	0	0	0	0	0	0	0	0	0	0	0	0	-59.27856445	-2.556205511	12.39385509	-46.7422905	-1.704475641	3.649792194	-15.19651222	0.80330658	10.5054369	-10.53991699	0.547699869	11.46605968	-1.303030849	0.73333931	7.583611965	-0.934568167	0.515714824	7.539778709	-13.81027412	-2.818490982	-74.99868011	13.81027412	2.818490982	-74.99868011	-83.11558533	-32.83645248	935.7642822	83.11558533	32.83645248	935.7642822	-57.29216003	-9.881339073	36.68014145	-43.95956802	-7.80640316	45.48163986	-16.51528549	-0.454154521	22.23046684	-13.01803207	-0.527847886	25.22027206	-1.175325274	-9.83E-16	-2.23111248	-2.006161928	-4.03E-16	-2.112297297	-226.7542572	479.9824219	1208.246582	-552.6281128	482.0102844	1196.177124	-230.6354218	46.56374741	1130.452515	-541.7786865	47.11125565	1125.890991	-281.4746704	469.6098633	1218.863159	-498.683075	473.7938538	1206.911865	-266.6029968	49.67667007	1150.30127	-505.4202576	54.68859863	1142.919189	-194.8391724	673.2250977	1189.022827	-588.8511963	672.6223755	1180.615601	-168.664093	253.3777008	1126.842407	-610.8826294	254.1881561	1125.784668	-398.0210266	1.304700017	259.0899963	-231.4150085	1.697000027	-251.3170013	-396.9869995	4.582600117	-949.9620361	-397.6947021	934.255127	1237.30127	-397.6947021	2.44E-14	1237.30127	0	0	0	0	0	0	0	0	0	0	0	0	-332.2493286	848.7653198	1201.647949	-458.1387024	848.6167603	1197.785522	-0.193474606	1.563926101	-0.107732348
133	0.88	-334.7146606	1545.747314	1298.608643	-333.5537415	1521.689941	1159.324219	-461.4654846	1542.822754	1306.931763	-484.4951172	1518.091553	1181.118774	-400.9906006	1406.209473	1149.373535	-393.789093	1225.6875	1086.858154	-406.4512024	1338.933716	1266.763306	-407.3476563	1302.60376	1287.479248	-508.460907	1267.152344	1077.665894	-254.3923798	1380.111328	1181.984985	-145.9540863	1189.828491	1152.08728	-88.26436615	1114.373169	1172.325317	-41.65395737	1071.237427	1193.192383	48.8008194	940.8762207	1269.213623	23.03974152	949.315918	1333.565552	78.68775177	900.5117188	1350.644165	-554.8352661	1367.494019	1176.364502	-622.9019165	1281.336426	1157.730103	-694.371521	1092.212524	1147.657593	-817.3872681	951.7099609	1204.474365	-842.7929077	909.6123047	1222.705688	-842.1929321	935.130127	1288.442017	-900.3103638	883.0725098	1298.139648	-393.8993835	971.7312622	1083.072388	-254.0674744	934.1430664	1269.390259	-540.2712402	934.0854492	1260.918335	-206.2454987	643.5160522	1238.937988	-191.0914154	553.4515381	1157.062378	-235.2057037	566.7493286	1292.888062	-202.8963623	258.2758789	1179.246094	-188.1809998	179.8312378	1087.029053	-227.5857544	178.4149017	1223.656006	-275.6390381	39.43688965	1091.260376	-226.242157	38.87503052	1252.069458	-583.7058105	660.8796387	1198.381958	-555.3766479	589.7317505	1100.806152	-582.6309204	572.0328979	1240.989014	-577.0078735	267.6534424	1153.97937	-555.1412964	203.2299042	1053.843018	-571.2575684	182.3537445	1193.611572	-495.2180481	41.37808609	1085.231079	-539.8527222	39.89293289	1246.32373	-395.1859741	848.6908569	1199.74585	-395.6233215	845.6332397	1214.540771	-382.5966187	848.6933594	1200.11853	-395.9645691	972.0355835	1225.214111	-393.5249634	959.5944214	1141.863403	-393.7072144	958.3204346	1148.027954	-387.2302551	959.5957031	1142.049805	-393.9144287	1021.266846	1154.597412	-281.4678345	469.6087952	1218.880981	-274.6674194	472.2255859	1256.474243	-244.1271973	474.2877808	1211.800537	-332.2412109	848.7662964	1201.673096	-498.6805115	473.7888184	1206.927368	-505.7854309	475.456604	1243.92688	-461.8661499	469.9821167	1214.168335	-458.1308289	848.6153564	1197.818481	-266.4534912	45.47725296	1149.618652	-248.4069214	40.65261078	1183.074707	-231.5520325	49.68800354	1131.399658	-280.278595	436.0142517	1213.394775	-505.4907837	50.49629593	1142.282471	-521.1721191	45.28071594	1178.085938	-469.3149109	47.55984116	1157.699219	-499.2199402	440.2606506	1201.807007	-226.981781	49.20966339	1252.789185	-227.9341888	62.51734924	1253.715942	-214.2370758	50.39182281	1248.911621	-266.3847351	55.27993393	1125.130981	-539.4970093	50.05588913	1247.28186	-539.0358887	63.23114395	1248.524048	-526.7215576	49.28850174	1250.679077	-504.9756775	60.85719299	1119.901001	-214.0453339	47.56306076	1294.806396	-214.3460999	51.76548386	1295.098999	-210.0206909	47.93636703	1293.581909	-226.4884033	49.47969818	1254.493286	-550.8405151	46.84959412	1289.216187	-550.6949463	51.01020813	1289.608521	-546.8061523	46.60727692	1290.289063	-539.9388428	50.26080322	1248.990723	-410.5632324	1443.434448	1128.812622	-392.298584	1484.182251	1350.219849	-185.6407166	1449.568115	1109.12915	-420.1268616	1665.509033	1088.730835	-257.9546509	1333.313965	1179.470703	-178.2419434	1319.294556	1327.472412	-245.1693268	1501.273071	1188.494507	-406.0680542	1340.267334	1259.902222	-546.9959717	1321.22522	1173.767212	-630.7385864	1299.070679	1315.678711	-519.2648926	1157.551514	1164.579468	-406.0681152	1340.267334	1259.902222	-406.0680847	1340.267334	1259.902222	-415.2343445	1308.359985	1424.052368	-573.222168	1337.317017	1249.994751	-401.2886963	1175.887939	1228.217163	-120.2719421	1095.863647	1170.942383	-210.6109924	1052.665649	915.2380371	-340.0315857	964.8552856	1270.7146	-257.9545593	1333.313965	1179.470703	31.57709885	939.7041626	1300.358032	36.230896	792.0804443	1116.767456	-156.9840546	827.2944946	1385.965942	-109.6425171	1084.932373	1180.001465	98.39913177	835.3218384	1391.213745	210.8380432	935.0904541	1423.140137	179.0706482	782.7277832	1271.45752	31.57707977	939.7041626	1300.358154	-662.2596436	1076.44812	1157.108032	-503.2980347	1015.959595	946.0358887	-849.1408691	1175.968872	987.8445435	-546.9959717	1321.22522	1173.767212	-837.560791	917.7255249	1257.332275	-779.6085205	751.6654663	1095.710815	-1002.238281	1005.421997	1108.179321	-674.5307007	1065.337524	1164.123779	-932.9729614	824.7833252	1346.504028	-1057.775879	918.9315796	1311.096191	-901.1279297	915.2886353	1474.909668	-837.560791	917.7254639	1257.332275	-0.354250818	1.658148646	-11.66650677	0.354250818	-1.658148646	-11.66650677	-4.273726463	-17.13516045	-2.722429514	-2.067188501	-15.11155796	-4.846751213	7.681396484	-12.03105259	-14.04256058	6.140215397	-9.218312263	-13.2466116	-3.249763012	-16.43270111	-12.69034481	-3.168020487	-11.58512402	-10.90029621	0.650666475	10.62258911	-5.762913704	0.316728264	8.22136116	-3.501032829	2.63E-15	-1.59E-15	3.98E-16	3.23E-15	3.98E-16	-7.95E-16	5.74E-16	0	-9.374113083	5.40E-16	0	-8.822810173	1.045826674	-8.344193459	21.11782455	-1.045826674	8.344193459	21.11782455	-1.320441961	1.459619761	0.685124993	1.320441961	-1.459619761	0.685124993	-29.08643913	-29.57933235	-6.134255886	5.63E-16	-1.81E-12	-35.15790176	11.0038271	123.3716583	-1.547618032	-26.61904144	-40.55737305	-7.763101578	5.21E-16	2.79E-12	-34.48522568	8.620174408	115.7721558	-6.838456154	1.635341287	-3.138793945	-10.91027737	-1.635341287	3.138793945	-10.91027737	2.426757574	4.642454147	-10.23103237	-2.426757574	-4.642454147	-10.23103237	-1.59E-20	-0.000259913	-9.75E-37	3.60E-21	5.89E-05	2.21E-37	2.12E-21	3.47E-05	1.30E-37	1.91E-20	0.00031205	1.17E-36	-3.69E-21	-6.03E-05	-2.26E-37	2.81E-21	4.59E-05	1.72E-37	5.40E-20	0.000881606	3.31E-36	5.40E-20	0.000881606	3.31E-36	7.02E-19	0.01145656	4.30E-35	7.02E-19	0.01145656	4.30E-35	1.16E-20	0.000188778	7.08E-37	2.93E-20	0.00047828	1.79E-36	-2.16E-22	-3.53E-06	-1.32E-38	-1.34E-20	-0.00021894	-8.21E-37	-6.86E-22	-1.12E-05	-4.20E-38	-1.04E-20	-0.000169303	-6.35E-37	-398.0210266	1.304700017	259.0899963	-231.4150085	1.697000027	-251.3170013	-396.9869995	4.582600117	-949.9620361	0	0	0	0	0	0	-0.193465188	1.563927174	-0.107725531	0.159173071	1.56977284	-0.069441654	-0.063703187	0.590236545	0.075258732	0.044552416	0.591438293	0.079211175	-0.012579619	-0.006444847	0.141537964	0.008244842	-0.011603178	0.141531706	-0.00203882	4.457561493	0.922631025	-0.00203882	4.457561493	0.922631025	-0.159592554	8.850251198	1.722857475	-0.159592554	8.850251198	1.722857475	0.234395161	0.424317062	0.076845981	-0.180672586	0.442854047	0.109224081	0.103185818	0.133148715	0.135215878	-0.079692617	0.133448318	0.149924576	0.020132644	0.040023267	-0.038268734	-0.033064336	0.034227338	-0.034726959	0	0	0	0	0	0	0	0	0	0	0	0	-59.27594757	-2.556493044	12.38776112	-46.75465775	-1.705007315	3.624494314	-15.19717503	0.803310633	10.51038647	-10.54342651	0.547832191	11.47007465	-1.303012848	0.733335376	7.583463669	-0.934575319	0.515832603	7.539577484	-13.80586147	-2.815856695	-75.02966309	13.80586147	2.815856695	-75.02966309	-83.25783539	-32.91057587	936.0447998	83.25783539	32.91057587	936.0447998	-57.29526901	-9.882029533	36.69133759	-43.94113922	-7.80232048	45.49990845	-16.5161972	-0.454370081	22.23271561	-13.01161194	-0.5280146	25.2221241	-1.175775647	2.92E-16	-2.231062174	-2.005988598	-3.02E-15	-2.111515284	-226.7481384	479.9811401	1208.260498	-552.6264038	482.0065002	1196.197876	-230.6351776	46.56401062	1130.45459	-541.7821045	47.1116333	1125.894409	-281.4678345	469.6088257	1218.880859	-498.680542	473.7888184	1206.927368	-266.6021729	49.67657471	1150.304443	-505.4233704	54.68730927	1142.922485	-194.8326721	673.2245483	1189.036011	-588.8487549	672.6221313	1180.650024	-168.6616516	253.378006	1126.849487	-610.8828125	254.187851	1125.794678	-398.0210266	1.304700017	259.0899963	-231.4150085	1.697000027	-251.3170013	-396.9869995	4.582600117	-949.9620361	-397.6922607	934.2581177	1237.310059	-397.6922607	2.44E-14	1237.310059	0	0	0	0	0	0	0	0	0	0	0	0	-332.2411804	848.7663574	1201.673096	-458.1307983	848.6152954	1197.818481	-0.193465188	1.563927293	-0.107725538
